<svg width="512" height="512" viewBox="0 0 512 512" fill="none" xmlns="http://www.w3.org/2000/svg">
<rect width="512" height="512" fill="#003D58"/>
<rect width="48" height="248" fill="#0092C8"/>
<rect x="464" y="338.667" width="48" height="154.667" fill="#0092C8"/>
<rect x="82.6665" y="474.667" width="429.333" height="37.3333" fill="#FEDA00"/>
<rect x="104" width="408" height="53.3333" fill="#ED1D24"/>
<path opacity="0.5" d="M210.666 136C209.841 145.242 209.841 156.857 209.841 171.549V340.45C209.841 355.142 209.841 366.758 210.667 376H193.979C156.591 376 137.897 376 126.282 364.285C114.667 352.568 114.667 333.712 114.667 296V216C114.667 178.288 114.667 159.432 126.282 147.716C137.897 136 156.591 136 193.979 136H210.666Z" fill="white"/>
<path fill-rule="evenodd" clip-rule="evenodd" d="M219.316 102.539C208 112.571 208 130.921 208 167.622V344.378C208 381.079 208 399.429 219.316 409.461C230.632 419.493 247.928 416.476 282.521 410.442L319.782 403.944C358.094 397.261 377.249 393.92 388.625 379.867C400 365.816 400 345.493 400 304.847V207.154C400 166.507 400 146.184 388.625 132.132C377.249 118.08 358.094 114.739 319.782 108.057L282.521 101.558C247.928 95.5241 230.632 92.5073 219.316 102.539ZM268 239.256C268 232.32 262.627 226.698 256 226.698C249.372 226.698 244 232.32 244 239.256V272.744C244 279.68 249.372 285.303 256 285.303C262.627 285.303 268 279.68 268 272.744V239.256Z" fill="white"/>
</svg>
